<svg width="116" height="134" viewBox="0 0 116 134" fill="none" xmlns="http://www.w3.org/2000/svg">
<path d="M0.5 34.5C7.22535 20.7526 13.2757 14.2454 29.5 5.50001C49.6532 -0.543383 60.5722 -0.268047 79.5 5.50001C93.1974 12.2545 99.7662 18.3734 109 34.5C117.271 61.9475 117 76.2269 109 100C99.8117 116.125 93.3015 122.255 79.5 128.5C60.1793 135.113 49.2288 135.021 29.5 128.5C14.7815 120.983 8.7987 114.352 0.5 100M54 13C35.5 13 26.4965 26.6687 22.5 40C18.5035 53.3313 18.5544 76.7731 22.5 92.5C28.3841 112.978 34.7978 120.016 54 121.5" stroke="black"/>
</svg>
